#tb 0: 1/180000
0,      64800,      64800,        0,   622080, 0x1511cae9
0,      72000,      72000,        0,   622080, 0x6e77e746
0,      79200,      79200,        0,   622080, 0x89aac777
0,      86400,      86400,        0,   622080, 0x7e0a9335
0,      93600,      93600,        0,   622080, 0x5f34759b
0,     100800,     100800,        0,   622080, 0xfac498a6
0,     108000,     108000,        0,   622080, 0xe60e7a9e
0,     115200,     115200,        0,   622080, 0x44875bbd
0,     122400,     122400,        0,   622080, 0xfa761aab
0,     129600,     129600,        0,   622080, 0x59be119c
0,     136800,     136800,        0,   622080, 0x21316b36
0,     144000,     144000,        0,   622080, 0x929fde5b
0,     151200,     151200,        0,   622080, 0xfca8990c
0,     158400,     158400,        0,   622080, 0x1ec87d02
0,     165600,     165600,        0,   622080, 0x5768eea0
0,     172800,     172800,        0,   622080, 0x1a0894ab
0,     180000,     180000,        0,   622080, 0xb4e61323
0,     187200,     187200,        0,   622080, 0xb773341a
0,     194400,     194400,        0,   622080, 0x8a914cf7
0,     201600,     201600,        0,   622080, 0xf1cfbc7d
0,     208800,     208800,        0,   622080, 0xebaeb317
0,     216000,     216000,        0,   622080, 0xbae9adf4
0,     223200,     223200,        0,   622080, 0x593544fd
0,     230400,     230400,        0,   622080, 0x2cd8ec0b
0,     237600,     237600,        0,   622080, 0x8032d9d4
0,     244800,     244800,        0,   622080, 0x5c67ace7
0,     252000,     252000,        0,   622080, 0x95714528
0,     259200,     259200,        0,   622080, 0xa11cbed2
0,     266400,     266400,        0,   622080, 0x7389f8f1
0,     273600,     273600,        0,   622080, 0xa694f3f2
0,     280800,     280800,        0,   622080, 0xac3a3d09
